<!DOCTYPE svg PUBLIC "-//W3C//DTD SVG 20010904//EN" "http://www.w3.org/TR/2001/REC-SVG-20010904/DTD/svg10.dtd">
<svg version="1.0" xmlns="http://www.w3.org/2000/svg" width="481px" height="474px" viewBox="0 0 4810 4740" preserveAspectRatio="xMidYMid meet">
<g id="layer101" fill="#00bc01" stroke="none">
 <path d="M0 2370 l0 -2370 2405 0 2405 0 0 2370 0 2370 -2405 0 -2405 0 0 -2370z"/>
 </g>
<g id="layer102" fill="#02c81c" stroke="none">
 <path d="M0 2370 l0 -2370 2405 0 2405 0 0 2370 0 2370 -2405 0 -2405 0 0 -2370z m2104 1784 c14 -5 16 -32 16 -192 l0 -187 -87 -87 c-48 -49 -84 -88 -79 -88 4 0 44 35 88 77 l79 77 -2 -145 -1 -146 -95 -6 c-52 -4 -99 -10 -106 -14 -6 -4 -29 -8 -52 -9 -22 -1 -66 -10 -98 -20 l-58 -18 -57 57 c-34 34 -66 57 -79 57 -14 0 -49 -28 -98 -77 -73 -75 -75 -80 -73 -122 2 -39 -2 -47 -34 -75 -20 -18 -49 -38 -65 -46 -38 -20 -249 -226 -276 -270 -11 -19 -24 -37 -28 -40 -3 -3 -29 -41 -56 -85 -53 -85 -114 -216 -132 -283 -6 -22 -20 -51 -31 -64 l-19 -23 -255 255 c-141 140 -256 261 -256 268 0 17 47 109 108 209 49 81 59 95 132 188 22 27 40 55 40 62 0 7 3 13 8 13 4 0 24 17 44 38 155 156 202 202 205 202 2 0 21 14 41 30 20 17 68 53 106 81 l69 51 109 -109 c59 -59 108 -103 108 -98 0 5 -45 55 -101 111 l-101 101 49 30 c54 33 257 132 313 152 19 7 44 17 55 22 11 5 61 20 110 34 50 14 97 28 105 32 8 3 22 5 32 4 9 -1 19 3 23 9 3 6 11 8 16 4 6 -3 18 -3 27 1 21 9 58 15 96 15 15 0 34 4 42 11 7 6 21 8 31 5 10 -2 36 -1 58 4 50 10 109 12 129 4z m-503 -695 c14 -14 19 -30 17 -57 -3 -36 -6 -38 -88 -78 -86 -42 -100 -42 -100 0 0 18 126 156 142 156 5 0 17 -9 29 -21z m-1099 -790 l251 -251 -169 -168 -169 -169 -175 -1 c-96 -1 -180 -1 -185 -1 -12 1 -12 128 -1 154 5 10 6 33 3 52 -3 19 -1 37 4 41 6 3 9 16 8 27 -1 12 1 29 4 37 6 15 29 129 32 165 1 11 7 33 14 48 6 16 11 32 11 36 0 37 97 281 112 281 5 0 122 -113 260 -251z m272 -286 c0 -21 -6 -54 -12 -74 -7 -19 -12 -51 -13 -70 0 -66 -7 -150 -12 -155 -4 -4 -214 -7 -287 -5 -8 1 62 78 155 171 93 94 170 170 170 170 0 0 0 -17 -1 -37z"/>
 </g>
<g id="layer103" fill="#4e4e4e" stroke="none">
 <path d="M0 2370 l0 -2370 2405 0 2405 0 0 2370 0 2370 -2405 0 -2405 0 0 -2370z m2104 1784 c14 -5 16 -46 16 -350 l0 -344 -32 -1 c-88 -2 -151 -9 -163 -19 -7 -6 -24 -8 -38 -5 -14 4 -28 2 -32 -4 -3 -6 -10 -9 -15 -6 -11 7 -140 -25 -159 -40 -8 -5 -21 -10 -30 -10 -24 -1 -224 -99 -240 -118 -7 -9 -18 -17 -23 -17 -16 0 -139 -90 -145 -106 -3 -8 -10 -14 -16 -14 -13 0 -147 -130 -147 -143 0 -4 -15 -22 -32 -40 -18 -18 -40 -46 -48 -62 -8 -16 -25 -40 -38 -54 -51 -55 -194 -394 -178 -420 4 -5 2 -13 -4 -16 -6 -4 -10 -14 -8 -23 1 -10 -3 -33 -10 -53 -7 -19 -12 -51 -11 -70 1 -44 -8 -149 -14 -155 -3 -4 -619 -7 -682 -4 -15 0 -8 212 8 250 3 8 6 26 6 40 1 43 6 74 14 88 5 7 6 19 3 27 -3 8 -1 17 5 21 6 3 8 12 5 20 -3 7 -1 16 5 19 5 4 9 12 8 18 -1 7 3 25 10 41 6 16 13 40 15 55 2 14 8 39 15 54 6 16 11 37 11 47 0 10 4 21 9 25 5 3 17 27 26 53 15 40 57 136 86 192 30 61 131 217 185 286 35 45 64 86 64 89 0 3 14 18 30 32 17 13 30 31 30 39 0 8 7 14 15 14 8 0 15 5 15 12 0 16 71 88 86 88 7 0 27 17 45 38 18 20 37 39 43 42 6 3 54 37 106 75 107 78 107 79 207 135 40 23 75 45 78 51 4 5 12 9 20 9 8 0 47 15 87 34 91 43 225 90 300 105 32 7 60 16 63 21 3 5 12 7 20 3 9 -3 21 0 29 6 7 6 16 8 19 5 3 -3 12 -2 19 2 13 8 47 13 97 14 13 0 30 5 37 11 8 6 24 9 36 6 13 -3 41 -2 63 3 51 10 109 12 129 4z"/>
 <path d="M1460 3411 c0 -5 5 -13 10 -16 6 -3 10 -2 10 4 0 5 -4 13 -10 16 -5 3 -10 2 -10 -4z"/>
 </g>
<g id="layer104" fill="#ea0001" stroke="none">
 <path d="M0 2370 l0 -2370 2405 0 2405 0 0 2132 0 2131 -26 -23 c-14 -14 -30 -36 -37 -49 -7 -14 -25 -32 -42 -41 -16 -9 -43 -36 -60 -60 -17 -24 -44 -51 -60 -60 -16 -9 -43 -36 -60 -60 -17 -23 -39 -48 -50 -54 -11 -6 -32 -23 -48 -38 -15 -16 -30 -28 -34 -28 -11 0 -233 224 -233 235 0 6 108 118 240 250 l240 240 85 -85 85 -85 0 168 0 167 -167 0 -168 0 80 -80 80 -80 -240 -240 c-132 -132 -245 -240 -250 -240 -6 0 -62 52 -125 115 l-113 115 28 30 c15 16 33 39 39 51 6 12 31 37 56 54 25 17 50 41 56 53 15 31 45 62 59 62 14 0 70 59 78 83 4 9 17 21 29 26 13 5 32 18 42 30 l19 21 -2156 0 -2157 0 0 -2370z m4022 1833 l118 -118 -232 -235 -233 -235 230 228 c127 125 235 227 240 227 6 0 61 -51 124 -114 119 -119 129 -140 81 -163 -30 -14 -68 -53 -84 -85 -6 -12 -22 -28 -34 -34 -31 -15 -72 -55 -72 -69 0 -14 -31 -44 -62 -59 -12 -6 -35 -31 -52 -55 -17 -24 -40 -49 -51 -55 -25 -14 -77 -66 -91 -91 -10 -17 -73 -60 -78 -53 -99 143 -331 375 -474 474 -9 6 38 71 59 81 29 14 67 53 83 84 6 12 31 37 56 54 25 17 50 41 56 53 15 31 45 62 59 62 14 0 70 59 78 83 4 9 15 20 24 24 24 8 83 64 83 78 0 16 21 35 39 35 9 0 69 -53 133 -117z m-1918 -49 c14 -5 16 -46 16 -350 l0 -344 -32 -1 c-88 -2 -151 -9 -163 -19 -7 -6 -24 -8 -38 -5 -14 4 -28 2 -32 -4 -3 -6 -10 -9 -15 -6 -11 7 -140 -25 -159 -40 -8 -5 -21 -10 -30 -10 -24 -1 -224 -99 -240 -118 -7 -9 -18 -17 -23 -17 -16 0 -139 -90 -145 -106 -3 -8 -10 -14 -16 -14 -13 0 -147 -130 -147 -143 0 -4 -15 -22 -32 -40 -18 -18 -40 -46 -48 -62 -8 -16 -25 -40 -38 -54 -51 -55 -194 -394 -178 -420 4 -5 2 -13 -4 -16 -6 -4 -10 -14 -8 -23 1 -10 -3 -33 -10 -53 -7 -19 -12 -51 -11 -70 1 -44 -8 -149 -14 -155 -3 -4 -619 -7 -682 -4 -15 0 -8 212 8 250 3 8 6 26 6 40 1 43 6 74 14 88 5 7 6 19 3 27 -3 8 -1 17 5 21 6 3 8 12 5 20 -3 7 -1 16 5 19 5 4 9 12 8 18 -1 7 3 25 10 41 6 16 13 40 15 55 2 14 8 39 15 54 6 16 11 37 11 47 0 10 4 21 9 25 5 3 17 27 26 53 15 40 57 136 86 192 30 61 131 217 185 286 35 45 64 86 64 89 0 3 14 18 30 32 17 13 30 31 30 39 0 8 7 14 15 14 8 0 15 5 15 12 0 16 71 88 86 88 7 0 27 17 45 38 18 20 37 39 43 42 6 3 54 37 106 75 107 78 107 79 207 135 40 23 75 45 78 51 4 5 12 9 20 9 8 0 47 15 87 34 91 43 225 90 300 105 32 7 60 16 63 21 3 5 12 7 20 3 9 -3 21 0 29 6 7 6 16 8 19 5 3 -3 12 -2 19 2 13 8 47 13 97 14 13 0 30 5 37 11 8 6 24 9 36 6 13 -3 41 -2 63 3 51 10 109 12 129 4z"/>
 <path d="M1460 3411 c0 -5 5 -13 10 -16 6 -3 10 -2 10 4 0 5 -4 13 -10 16 -5 3 -10 2 -10 -4z"/>
 </g>
<g id="layer105" fill="#db010f" stroke="none">
 <path d="M0 2370 l0 -2370 1059 0 c920 0 1062 2 1087 15 20 10 23 15 12 15 -17 0 -18 16 -18 191 l0 191 113 114 c63 63 119 114 125 114 7 0 12 6 12 13 0 21 47 60 64 54 9 -4 16 -12 16 -19 0 -7 16 -24 35 -38 19 -14 35 -30 35 -36 0 -7 9 -14 20 -17 11 -3 20 -12 20 -21 0 -9 4 -16 8 -16 12 0 102 -88 102 -100 0 -5 4 -10 9 -10 12 0 101 -89 101 -101 0 -5 4 -9 9 -9 5 0 34 -26 65 -57 31 -31 58 -54 61 -51 3 3 -101 112 -232 242 -182 182 -235 239 -223 245 8 5 38 14 66 19 29 6 89 29 135 52 46 22 87 40 91 40 16 0 247 162 292 204 27 25 53 43 59 39 6 -3 7 -1 3 5 -4 6 12 30 35 54 50 51 119 141 119 154 0 21 65 49 106 46 39 -3 45 0 108 64 98 97 105 127 41 183 -19 17 -35 33 -35 37 0 3 -9 13 -20 22 -19 16 -19 19 -5 67 19 61 45 224 45 283 0 24 6 49 13 57 20 19 97 28 173 20 l67 -7 -79 -79 c-43 -43 -75 -82 -71 -85 4 -4 41 26 83 67 41 41 82 80 90 88 12 10 62 15 199 19 193 5 222 0 211 -37 -3 -9 -8 -74 -11 -144 -2 -71 -7 -132 -9 -135 -2 -4 -12 -49 -21 -99 -9 -51 -21 -91 -25 -88 -8 5 -20 -19 -19 -38 0 -7 5 -3 10 8 8 17 9 17 4 -5 -2 -14 -5 -31 -5 -38 0 -7 -4 -10 -10 -7 -5 3 -7 0 -4 -9 11 -28 -90 -269 -180 -429 l-49 -89 -103 103 c-57 57 -106 100 -110 96 -4 -4 19 -33 52 -66 32 -32 79 -79 102 -103 l44 -46 -18 -28 c-10 -16 -21 -31 -24 -34 -3 -3 -19 -25 -35 -49 -16 -24 -46 -62 -65 -85 -44 -51 -225 -233 -265 -266 -93 -77 -153 -120 -170 -120 -10 0 -15 -3 -12 -6 14 -14 -188 -129 -338 -193 -27 -12 -57 -26 -66 -31 -22 -12 -102 -34 -113 -31 -5 1 -12 -2 -15 -7 -14 -20 -340 -90 -361 -77 -6 3 -10 1 -10 -4 0 -8 367 -11 1215 -11 l1215 0 0 2132 0 2131 -26 -23 c-14 -14 -30 -36 -37 -49 -7 -14 -25 -32 -42 -41 -16 -9 -43 -36 -60 -60 -17 -24 -44 -51 -60 -60 -16 -9 -43 -36 -60 -60 -17 -23 -39 -48 -50 -54 -11 -6 -32 -23 -48 -38 -15 -16 -30 -28 -34 -28 -11 0 -233 224 -233 235 0 6 108 118 240 250 l240 240 85 -85 85 -85 0 168 0 167 -167 0 -168 0 80 -80 80 -80 -240 -240 c-132 -132 -245 -240 -250 -240 -6 0 -62 52 -125 115 l-113 115 28 30 c15 16 33 39 39 51 6 12 31 37 56 54 25 17 50 41 56 53 15 31 45 62 59 62 14 0 70 59 78 83 4 9 17 21 29 26 13 5 32 18 42 30 l19 21 -2156 0 -2157 0 0 -2370z m4022 1833 l118 -118 -232 -235 -233 -235 230 228 c127 125 235 227 240 227 6 0 61 -51 124 -114 119 -119 129 -140 81 -163 -30 -14 -68 -53 -84 -85 -6 -12 -22 -28 -34 -34 -31 -15 -72 -55 -72 -69 0 -14 -31 -44 -62 -59 -12 -6 -35 -31 -52 -55 -17 -24 -40 -49 -51 -55 -25 -14 -77 -66 -91 -91 -10 -17 -73 -60 -78 -53 -99 143 -331 375 -474 474 -9 6 38 71 59 81 29 14 67 53 83 84 6 12 31 37 56 54 25 17 50 41 56 53 15 31 45 62 59 62 14 0 70 59 78 83 4 9 15 20 24 24 24 8 83 64 83 78 0 16 21 35 39 35 9 0 69 -53 133 -117z m-1918 -49 c14 -5 16 -46 16 -350 l0 -344 -32 -1 c-88 -2 -151 -9 -163 -19 -7 -6 -24 -8 -38 -5 -14 4 -28 2 -32 -4 -3 -6 -10 -9 -15 -6 -11 7 -140 -25 -159 -40 -8 -5 -21 -10 -30 -10 -24 -1 -224 -99 -240 -118 -7 -9 -18 -17 -23 -17 -16 0 -139 -90 -145 -106 -3 -8 -10 -14 -16 -14 -13 0 -147 -130 -147 -143 0 -4 -15 -22 -32 -40 -18 -18 -40 -46 -48 -62 -8 -16 -25 -40 -38 -54 -51 -55 -194 -394 -178 -420 4 -5 2 -13 -4 -16 -6 -4 -10 -14 -8 -23 1 -10 -3 -33 -10 -53 -7 -19 -12 -51 -11 -70 1 -44 -8 -149 -14 -155 -3 -4 -619 -7 -682 -4 -15 0 -8 212 8 250 3 8 6 26 6 40 1 43 6 74 14 88 5 7 6 19 3 27 -3 8 -1 17 5 21 6 3 8 12 5 20 -3 7 -1 16 5 19 5 4 9 12 8 18 -1 7 3 25 10 41 6 16 13 40 15 55 2 14 8 39 15 54 6 16 11 37 11 47 0 10 4 21 9 25 5 3 17 27 26 53 15 40 57 136 86 192 30 61 131 217 185 286 35 45 64 86 64 89 0 3 14 18 30 32 17 13 30 31 30 39 0 8 7 14 15 14 8 0 15 5 15 12 0 16 71 88 86 88 7 0 27 17 45 38 18 20 37 39 43 42 6 3 54 37 106 75 107 78 107 79 207 135 40 23 75 45 78 51 4 5 12 9 20 9 8 0 47 15 87 34 91 43 225 90 300 105 32 7 60 16 63 21 3 5 12 7 20 3 9 -3 21 0 29 6 7 6 16 8 19 5 3 -3 12 -2 19 2 13 8 47 13 97 14 13 0 30 5 37 11 8 6 24 9 36 6 13 -3 41 -2 63 3 51 10 109 12 129 4z m1418 -2627 c4 -6 8 -15 8 -19 0 -11 -132 -138 -144 -138 -34 1 -37 17 -13 71 14 30 30 67 36 83 11 27 14 28 58 22 26 -3 50 -12 55 -19z m-1152 -857 c-18 -16 -37 -30 -42 -30 -4 0 -8 -5 -8 -11 0 -15 -125 -139 -140 -139 -5 0 -10 -6 -10 -14 0 -8 -7 -16 -15 -20 -13 -4 -15 9 -15 84 0 55 4 90 10 90 6 0 8 11 6 25 -5 25 -5 25 77 26 45 0 91 4 102 9 11 5 31 9 44 9 24 1 24 0 -9 -29z"/>
 <path d="M1460 3411 c0 -5 5 -13 10 -16 6 -3 10 -2 10 4 0 5 -4 13 -10 16 -5 3 -10 2 -10 -4z"/>
 <path d="M3490 1680 c0 -7 3 -10 7 -7 3 4 3 10 0 14 -4 3 -7 0 -7 -7z"/>
 <path d="M4110 1590 c0 -7 3 -10 7 -7 3 4 3 10 0 14 -4 3 -7 0 -7 -7z"/>
 <path d="M3333 1303 c4 -3 10 -3 14 0 3 4 0 7 -7 7 -7 0 -10 -3 -7 -7z"/>
 <path d="M3800 900 c0 -7 3 -10 7 -7 3 4 3 10 0 14 -4 3 -7 0 -7 -7z"/>
 <path d="M2885 880 c-3 -5 -2 -10 4 -10 5 0 13 5 16 10 3 6 2 10 -4 10 -5 0 -13 -4 -16 -10z"/>
 <path d="M2825 840 c-3 -5 -1 -10 4 -10 6 0 11 5 11 10 0 6 -2 10 -4 10 -3 0 -8 -4 -11 -10z"/>
 <path d="M2753 783 c4 -3 10 -3 14 0 3 4 0 7 -7 7 -7 0 -10 -3 -7 -7z"/>
 <path d="M3280 400 c0 -7 3 -10 7 -7 3 4 3 10 0 14 -4 3 -7 0 -7 -7z"/>
 <path d="M2873 183 c4 -3 10 -3 14 0 3 4 0 7 -7 7 -7 0 -10 -3 -7 -7z"/>
 <path d="M2680 110 c8 -5 20 -10 25 -10 6 0 3 5 -5 10 -8 5 -19 10 -25 10 -5 0 -3 -5 5 -10z"/>
 <path d="M2658 83 c7 -3 16 -2 19 1 4 3 -2 6 -13 5 -11 0 -14 -3 -6 -6z"/>
 </g>
<g id="layer106" fill="#15b627" stroke="none">
 <path d="M0 2370 l0 -2370 1068 2 1067 3 0 336 0 337 70 8 c39 4 79 8 90 10 11 1 41 5 67 8 43 6 47 5 41 -11 -6 -17 -5 -17 14 -1 11 10 24 18 29 18 5 0 119 -109 254 -242 l245 -243 -243 245 -243 246 73 23 c40 13 102 37 138 54 36 17 79 36 97 42 47 18 233 146 250 172 9 13 21 23 27 23 14 0 116 102 116 116 0 6 13 20 28 31 16 12 46 48 67 80 52 78 61 85 114 78 44 -5 45 -5 123 73 97 97 98 108 23 182 -59 58 -63 76 -36 144 7 16 13 48 15 70 2 23 7 49 11 59 4 9 5 29 2 42 -2 14 0 28 4 31 5 3 9 33 9 67 0 39 4 57 9 48 7 -11 9 -11 13 0 4 11 31 14 114 15 60 0 113 -1 117 -4 5 -2 -4 -18 -20 -36 -27 -30 -27 -30 9 3 l36 33 201 6 c185 4 201 4 207 -13 13 -32 8 -143 -12 -275 -3 -19 -7 -44 -8 -55 -2 -11 -7 -28 -11 -38 -4 -9 -5 -24 -2 -32 4 -8 3 -17 -2 -19 -4 -3 -16 -40 -25 -83 -22 -98 -34 -140 -51 -178 -7 -16 -30 -70 -50 -120 -51 -121 -147 -295 -163 -295 -7 0 -11 -4 -7 -9 3 -6 -23 -49 -57 -97 -35 -47 -67 -93 -73 -102 -5 -8 -27 -31 -48 -50 -20 -19 -37 -40 -37 -46 0 -15 -82 -96 -98 -96 -7 0 -12 -7 -12 -15 0 -8 -6 -15 -14 -15 -8 0 -26 -13 -39 -30 -14 -16 -28 -30 -31 -30 -3 0 -43 -29 -88 -64 -132 -100 -276 -183 -483 -276 -29 -13 -98 -34 -190 -59 -44 -12 -87 -25 -95 -28 -8 -3 -19 -7 -25 -8 -5 -1 -12 -3 -15 -4 -8 -4 -41 -9 -100 -16 -30 -3 -57 -8 -59 -11 -2 -2 536 -4 1197 -4 l1202 0 0 2132 0 2131 -26 -23 c-14 -14 -30 -36 -37 -49 -7 -14 -25 -32 -42 -41 -16 -9 -43 -36 -60 -60 -17 -24 -44 -51 -60 -60 -16 -9 -43 -36 -60 -60 -17 -23 -39 -48 -50 -54 -11 -6 -32 -23 -48 -38 -15 -16 -30 -28 -34 -28 -11 0 -233 224 -233 235 0 6 108 118 240 250 l240 240 85 -85 85 -85 0 168 0 167 -167 0 -168 0 80 -80 80 -80 -240 -240 c-132 -132 -245 -240 -250 -240 -6 0 -62 52 -125 115 l-113 115 28 30 c15 16 33 39 39 51 6 12 31 37 56 54 25 17 50 41 56 53 15 31 45 62 59 62 14 0 70 59 78 83 4 9 17 21 29 26 13 5 32 18 42 30 l19 21 -2156 0 -2157 0 0 -2370z m4022 1833 l118 -118 -232 -235 -233 -235 230 228 c127 125 235 227 240 227 6 0 61 -51 124 -114 119 -119 129 -140 81 -163 -30 -14 -68 -53 -84 -85 -6 -12 -22 -28 -34 -34 -31 -15 -72 -55 -72 -69 0 -14 -31 -44 -62 -59 -12 -6 -35 -31 -52 -55 -17 -24 -40 -49 -51 -55 -25 -14 -77 -66 -91 -91 -10 -17 -73 -60 -78 -53 -99 143 -331 375 -474 474 -9 6 38 71 59 81 29 14 67 53 83 84 6 12 31 37 56 54 25 17 50 41 56 53 15 31 45 62 59 62 14 0 70 59 78 83 4 9 15 20 24 24 24 8 83 64 83 78 0 16 21 35 39 35 9 0 69 -53 133 -117z m-1918 -49 c14 -5 16 -46 16 -350 l0 -344 -32 -1 c-88 -2 -151 -9 -163 -19 -7 -6 -24 -8 -38 -5 -14 4 -28 2 -32 -4 -3 -6 -10 -9 -15 -6 -11 7 -140 -25 -159 -40 -8 -5 -21 -10 -30 -10 -24 -1 -224 -99 -240 -118 -7 -9 -18 -17 -23 -17 -16 0 -139 -90 -145 -106 -3 -8 -10 -14 -16 -14 -13 0 -147 -130 -147 -143 0 -4 -15 -22 -32 -40 -18 -18 -40 -46 -48 -62 -8 -16 -25 -40 -38 -54 -51 -55 -194 -394 -178 -420 4 -5 2 -13 -4 -16 -6 -4 -10 -14 -8 -23 1 -10 -3 -33 -10 -53 -7 -19 -12 -51 -11 -70 1 -44 -8 -149 -14 -155 -3 -4 -619 -7 -682 -4 -15 0 -8 212 8 250 3 8 6 26 6 40 1 43 6 74 14 88 5 7 6 19 3 27 -3 8 -1 17 5 21 6 3 8 12 5 20 -3 7 -1 16 5 19 5 4 9 12 8 18 -1 7 3 25 10 41 6 16 13 40 15 55 2 14 8 39 15 54 6 16 11 37 11 47 0 10 4 21 9 25 5 3 17 27 26 53 15 40 57 136 86 192 30 61 131 217 185 286 35 45 64 86 64 89 0 3 14 18 30 32 17 13 30 31 30 39 0 8 7 14 15 14 8 0 15 5 15 12 0 16 71 88 86 88 7 0 27 17 45 38 18 20 37 39 43 42 6 3 54 37 106 75 107 78 107 79 207 135 40 23 75 45 78 51 4 5 12 9 20 9 8 0 47 15 87 34 91 43 225 90 300 105 32 7 60 16 63 21 3 5 12 7 20 3 9 -3 21 0 29 6 7 6 16 8 19 5 3 -3 12 -2 19 2 13 8 47 13 97 14 13 0 30 5 37 11 8 6 24 9 36 6 13 -3 41 -2 63 3 51 10 109 12 129 4z m1418 -2611 c29 -26 22 -45 -50 -116 -62 -62 -70 -67 -100 -61 -18 4 -32 8 -32 9 0 1 15 35 34 76 18 41 36 82 39 92 8 23 83 24 109 0z"/>
 <path d="M1460 3411 c0 -5 5 -13 10 -16 6 -3 10 -2 10 4 0 5 -4 13 -10 16 -5 3 -10 2 -10 -4z"/>
 <path d="M3704 1978 c-4 -7 -3 -8 4 -4 7 4 12 9 12 12 0 8 -9 4 -16 -8z"/>
 <path d="M3645 1924 c-18 -16 -22 -22 -9 -15 18 9 53 42 43 41 -2 -1 -17 -12 -34 -26z"/>
 <path d="M3695 1130 c3 -5 8 -10 11 -10 3 0 2 5 -1 10 -3 6 -8 10 -11 10 -3 0 -2 -4 1 -10z"/>
 <path d="M3730 1097 c0 -2 14 -16 31 -33 16 -16 28 -22 24 -14 -5 13 -55 56 -55 47z"/>
 <path d="M3805 1020 c3 -5 8 -10 11 -10 3 0 2 5 -1 10 -3 6 -8 10 -11 10 -3 0 -2 -4 1 -10z"/>
 <path d="M3845 980 c3 -5 8 -10 11 -10 3 0 2 5 -1 10 -3 6 -8 10 -11 10 -3 0 -2 -4 1 -10z"/>
 <path d="M2325 620 c-3 -5 -2 -10 4 -10 5 0 13 5 16 10 3 6 2 10 -4 10 -5 0 -13 -4 -16 -10z"/>
 <path d="M2297 593 c-4 -3 -7 -11 -7 -17 0 -6 5 -5 12 2 6 6 9 14 7 17 -3 3 -9 2 -12 -2z"/>
 <path d="M2220 509 c0 -5 5 -7 10 -4 6 3 10 8 10 11 0 2 -4 4 -10 4 -5 0 -10 -5 -10 -11z"/>
 <path d="M2180 475 c-8 -9 -8 -15 -2 -15 12 0 26 19 19 26 -2 2 -10 -2 -17 -11z"/>
 <path d="M2154 438 c-4 -7 -3 -8 4 -4 12 7 16 16 8 16 -3 0 -8 -5 -12 -12z"/>
 </g>
<g id="layer107" fill="#e21327" stroke="none">
 <path d="M0 2370 l0 -2370 1068 2 1067 3 0 336 0 337 70 8 c39 4 79 8 90 10 11 1 41 5 67 8 43 6 47 5 41 -11 -6 -17 -5 -17 14 -1 11 10 24 18 29 18 5 0 119 -109 254 -242 l245 -243 -243 245 -243 246 73 23 c40 13 102 37 138 54 36 17 79 36 97 42 47 18 233 146 250 172 9 13 21 23 27 23 14 0 116 102 116 116 0 6 13 20 28 31 16 12 46 48 67 80 52 78 61 85 114 78 44 -5 45 -5 123 73 97 97 98 108 23 182 -59 58 -63 76 -36 144 7 16 13 48 15 70 2 23 7 49 11 59 4 9 5 29 2 42 -2 14 0 28 4 31 5 3 9 33 9 67 0 39 4 57 9 48 7 -11 9 -11 13 0 4 11 31 14 114 15 60 0 113 -1 117 -4 5 -2 -4 -18 -20 -36 -27 -30 -27 -30 9 3 l36 33 201 6 c185 4 201 4 207 -13 13 -32 8 -143 -12 -275 -3 -19 -7 -44 -8 -55 -2 -11 -7 -28 -11 -38 -4 -9 -5 -24 -2 -32 4 -8 3 -17 -2 -19 -4 -3 -16 -40 -25 -83 -22 -98 -34 -140 -51 -178 -7 -16 -30 -70 -50 -120 -51 -121 -147 -295 -163 -295 -7 0 -11 -4 -7 -9 3 -6 -23 -49 -57 -97 -35 -47 -67 -93 -73 -102 -5 -8 -27 -31 -48 -50 -20 -19 -37 -40 -37 -46 0 -15 -82 -96 -98 -96 -7 0 -12 -7 -12 -15 0 -8 -6 -15 -14 -15 -8 0 -26 -13 -39 -30 -14 -16 -28 -30 -31 -30 -3 0 -43 -29 -88 -64 -132 -100 -276 -183 -483 -276 -29 -13 -98 -34 -190 -59 -44 -12 -87 -25 -95 -28 -8 -3 -19 -7 -25 -8 -5 -1 -12 -3 -15 -4 -8 -4 -41 -9 -100 -16 -30 -3 -57 -8 -59 -11 -2 -2 536 -4 1197 -4 l1202 0 0 2132 0 2131 -26 -23 c-14 -14 -30 -36 -37 -49 -7 -14 -25 -32 -42 -41 -16 -9 -43 -36 -60 -60 -17 -24 -44 -51 -60 -60 -16 -9 -43 -36 -60 -60 -17 -23 -39 -48 -50 -54 -11 -6 -32 -23 -48 -38 -15 -16 -30 -28 -34 -28 -11 0 -233 224 -233 235 0 6 108 118 240 250 l240 240 85 -85 85 -85 0 168 0 167 -167 0 -168 0 80 -80 80 -80 -240 -240 c-132 -132 -245 -240 -250 -240 -6 0 -62 52 -125 115 l-113 115 28 30 c15 16 33 39 39 51 6 12 31 37 56 54 25 17 50 41 56 53 15 31 45 62 59 62 14 0 70 59 78 83 4 9 17 21 29 26 13 5 32 18 42 30 l19 21 -2156 0 -2157 0 0 -2370z m4022 1833 l118 -118 -232 -235 -233 -235 230 228 c127 125 235 227 240 227 6 0 61 -51 124 -114 119 -119 129 -140 81 -163 -30 -14 -68 -53 -84 -85 -6 -12 -22 -28 -34 -34 -31 -15 -72 -55 -72 -69 0 -14 -31 -44 -62 -59 -12 -6 -35 -31 -52 -55 -17 -24 -40 -49 -51 -55 -25 -14 -77 -66 -91 -91 -10 -17 -73 -60 -78 -53 -99 143 -331 375 -474 474 -9 6 38 71 59 81 29 14 67 53 83 84 6 12 31 37 56 54 25 17 50 41 56 53 15 31 45 62 59 62 14 0 70 59 78 83 4 9 15 20 24 24 24 8 83 64 83 78 0 16 21 35 39 35 9 0 69 -53 133 -117z m-1892 -398 l0 -355 -47 0 c-59 0 -226 -25 -311 -46 -34 -9 -68 -17 -75 -18 -72 -15 -277 -126 -394 -213 -322 -240 -524 -610 -550 -1005 l-6 -98 -354 0 -353 0 0 63 c0 220 69 523 173 767 316 737 1057 1238 1860 1259 l57 1 0 -355z m1392 -2262 c29 -26 22 -45 -50 -116 -62 -62 -70 -67 -100 -61 -18 4 -32 8 -32 9 0 1 15 35 34 76 18 41 36 82 39 92 8 23 83 24 109 0z"/>
 <path d="M3704 1978 c-4 -7 -3 -8 4 -4 7 4 12 9 12 12 0 8 -9 4 -16 -8z"/>
 <path d="M3645 1924 c-18 -16 -22 -22 -9 -15 18 9 53 42 43 41 -2 -1 -17 -12 -34 -26z"/>
 <path d="M3695 1130 c3 -5 8 -10 11 -10 3 0 2 5 -1 10 -3 6 -8 10 -11 10 -3 0 -2 -4 1 -10z"/>
 <path d="M3730 1097 c0 -2 14 -16 31 -33 16 -16 28 -22 24 -14 -5 13 -55 56 -55 47z"/>
 <path d="M3805 1020 c3 -5 8 -10 11 -10 3 0 2 5 -1 10 -3 6 -8 10 -11 10 -3 0 -2 -4 1 -10z"/>
 <path d="M3845 980 c3 -5 8 -10 11 -10 3 0 2 5 -1 10 -3 6 -8 10 -11 10 -3 0 -2 -4 1 -10z"/>
 <path d="M2325 620 c-3 -5 -2 -10 4 -10 5 0 13 5 16 10 3 6 2 10 -4 10 -5 0 -13 -4 -16 -10z"/>
 <path d="M2297 593 c-4 -3 -7 -11 -7 -17 0 -6 5 -5 12 2 6 6 9 14 7 17 -3 3 -9 2 -12 -2z"/>
 <path d="M2220 509 c0 -5 5 -7 10 -4 6 3 10 8 10 11 0 2 -4 4 -10 4 -5 0 -10 -5 -10 -11z"/>
 <path d="M2180 475 c-8 -9 -8 -15 -2 -15 12 0 26 19 19 26 -2 2 -10 -2 -17 -11z"/>
 <path d="M2154 438 c-4 -7 -3 -8 4 -4 12 7 16 16 8 16 -3 0 -8 -5 -12 -12z"/>
 </g>
<g id="layer108" fill="#616368" stroke="none">
 <path d="M0 2370 l0 -2370 1065 0 1065 0 0 339 0 340 53 6 c28 3 72 8 97 10 25 3 61 7 80 10 19 3 50 7 68 9 18 2 39 9 46 15 7 6 16 8 19 4 4 -3 13 -1 20 5 8 7 30 14 51 16 20 3 49 12 64 19 15 8 75 38 134 67 59 29 134 75 167 102 33 26 62 48 65 48 10 0 86 72 191 180 14 14 25 31 25 38 0 6 8 16 18 21 10 5 28 30 41 54 27 52 58 69 109 61 36 -5 40 -3 110 69 47 49 72 83 72 98 0 15 -20 44 -56 80 l-55 56 16 59 c9 32 18 70 20 84 1 14 4 25 5 25 1 0 4 11 5 25 2 14 6 50 9 80 4 30 7 75 7 100 l2 45 344 3 c386 2 355 9 357 -77 1 -44 -9 -154 -19 -216 -8 -45 -16 -97 -18 -120 -1 -11 -5 -24 -8 -30 -3 -5 -6 -23 -7 -40 -1 -16 -7 -34 -12 -39 -6 -6 -10 -18 -10 -28 0 -19 -32 -124 -52 -168 -6 -14 -15 -36 -21 -50 -17 -42 -35 -81 -72 -160 -38 -79 -44 -89 -88 -157 -15 -24 -27 -46 -27 -51 0 -5 -9 -17 -20 -27 -11 -10 -20 -24 -20 -31 0 -6 -11 -22 -25 -35 -13 -13 -25 -29 -25 -34 0 -6 -9 -16 -20 -23 -11 -7 -20 -17 -20 -23 0 -13 -13 -28 -137 -154 -106 -107 -195 -187 -223 -197 -11 -4 -20 -11 -20 -16 0 -4 -14 -17 -32 -27 -17 -11 -48 -30 -67 -42 -20 -13 -43 -26 -51 -29 -8 -4 -28 -16 -45 -28 -53 -37 -286 -148 -337 -160 -15 -3 -40 -11 -55 -17 -15 -7 -40 -13 -54 -15 -15 -2 -39 -9 -55 -15 -16 -7 -33 -11 -38 -10 -4 1 -13 -2 -20 -7 -12 -11 -58 -20 -137 -28 -30 -3 -56 -8 -58 -10 -2 -2 534 -4 1192 -4 l1197 0 0 2132 0 2131 -26 -23 c-14 -14 -30 -36 -37 -49 -7 -14 -25 -32 -42 -41 -16 -9 -43 -36 -60 -60 -17 -24 -44 -51 -60 -60 -16 -9 -43 -36 -60 -60 -17 -23 -39 -48 -50 -54 -11 -6 -32 -23 -48 -38 -15 -16 -30 -28 -34 -28 -11 0 -233 224 -233 235 0 6 108 118 240 250 l240 240 85 -85 85 -85 0 168 0 167 -167 0 -168 0 80 -80 80 -80 -240 -240 c-132 -132 -245 -240 -250 -240 -6 0 -62 52 -125 115 l-113 115 28 30 c15 16 33 39 39 51 6 12 31 37 56 54 25 17 50 41 56 53 15 31 45 62 59 62 14 0 70 59 78 83 4 9 17 21 29 26 13 5 32 18 42 30 l19 21 -2156 0 -2157 0 0 -2370z m4022 1833 l118 -118 -232 -235 -233 -235 230 228 c127 125 235 227 240 227 6 0 61 -51 124 -114 119 -119 129 -140 81 -163 -30 -14 -68 -53 -84 -85 -6 -12 -22 -28 -34 -34 -31 -15 -72 -55 -72 -69 0 -14 -31 -44 -62 -59 -12 -6 -35 -31 -52 -55 -17 -24 -40 -49 -51 -55 -25 -14 -77 -66 -91 -91 -10 -17 -73 -60 -78 -53 -99 143 -331 375 -474 474 -9 6 38 71 59 81 29 14 67 53 83 84 6 12 31 37 56 54 25 17 50 41 56 53 15 31 45 62 59 62 14 0 70 59 78 83 4 9 15 20 24 24 24 8 83 64 83 78 0 16 21 35 39 35 9 0 69 -53 133 -117z m-1892 -398 l0 -355 -47 0 c-59 0 -226 -25 -311 -46 -34 -9 -68 -17 -75 -18 -72 -15 -277 -126 -394 -213 -322 -240 -524 -610 -550 -1005 l-6 -98 -354 0 -353 0 0 63 c0 220 69 523 173 767 316 737 1057 1238 1860 1259 l57 1 0 -355z m1403 -2267 c9 -11 17 -25 17 -30 0 -6 -33 -44 -73 -86 l-74 -75 -36 12 c-21 7 -37 15 -37 18 0 3 15 35 34 72 18 36 38 78 44 92 10 25 14 26 59 22 31 -3 54 -12 66 -25z"/>
 </g>
<g id="layer109" fill="#e51b4b" stroke="none">
 <path d="M0 2370 l0 -2370 1063 2 1062 3 3 337 2 337 53 6 c28 3 72 8 97 10 25 3 61 7 80 10 19 3 50 7 68 9 18 2 39 9 46 15 7 6 16 8 19 4 4 -3 13 -1 20 5 8 7 30 14 51 16 20 3 49 12 64 19 15 8 75 38 134 67 59 29 134 75 167 102 33 26 62 48 65 48 10 0 86 72 191 180 14 14 25 31 25 38 0 6 8 16 18 21 10 5 28 30 41 54 27 52 58 69 109 61 36 -5 40 -3 110 69 47 49 72 83 72 98 0 15 -20 44 -56 80 l-55 56 16 59 c9 32 18 70 20 84 1 14 4 25 5 25 1 0 4 11 5 25 2 14 6 50 9 80 4 30 7 75 7 100 l2 45 344 3 c386 2 355 9 357 -77 1 -44 -9 -154 -19 -216 -8 -45 -16 -97 -18 -120 -1 -11 -5 -24 -8 -30 -3 -5 -6 -23 -7 -40 -1 -16 -7 -34 -12 -39 -6 -6 -10 -18 -10 -28 0 -19 -32 -124 -52 -168 -6 -14 -15 -36 -21 -50 -17 -42 -35 -81 -72 -160 -38 -79 -44 -89 -88 -157 -15 -24 -27 -46 -27 -51 0 -5 -9 -17 -20 -27 -11 -10 -20 -24 -20 -31 0 -6 -11 -22 -25 -35 -13 -13 -25 -29 -25 -34 0 -6 -9 -16 -20 -23 -11 -7 -20 -17 -20 -23 0 -13 -13 -28 -137 -154 -106 -107 -195 -187 -223 -197 -11 -4 -20 -11 -20 -16 0 -4 -14 -17 -32 -27 -17 -11 -48 -30 -67 -42 -20 -13 -43 -26 -51 -29 -8 -4 -28 -16 -45 -28 -53 -37 -286 -148 -337 -160 -15 -3 -40 -11 -55 -17 -15 -7 -40 -13 -54 -15 -15 -2 -39 -9 -55 -15 -16 -7 -33 -11 -38 -10 -4 1 -13 -3 -20 -8 -12 -10 -102 -27 -123 -23 -6 2 -14 -2 -18 -8 -4 -7 366 -10 1164 -10 l1171 0 0 2122 0 2123 -80 -80 c-45 -44 -257 -257 -473 -473 -216 -216 -399 -397 -408 -402 -12 -7 -26 5 -65 58 -62 86 -290 314 -376 376 -53 39 -65 53 -58 65 5 9 159 165 342 348 183 183 394 393 468 468 l135 135 -2148 0 -2147 0 0 -2370z m2130 1435 l0 -355 -47 0 c-59 0 -226 -25 -311 -46 -34 -9 -68 -17 -75 -18 -72 -15 -277 -126 -394 -213 -322 -240 -524 -610 -550 -1005 l-6 -98 -354 0 -353 0 0 63 c0 220 69 523 173 767 316 737 1057 1238 1860 1259 l57 1 0 -355z m1403 -2267 c9 -11 17 -25 17 -30 0 -6 -33 -44 -73 -86 l-74 -75 -36 12 c-21 7 -37 15 -37 18 0 3 15 35 34 72 18 36 38 78 44 92 10 25 14 26 59 22 31 -3 54 -12 66 -25z"/>
 <path d="M4500 4732 c0 -9 293 -302 303 -302 4 0 7 70 7 155 l0 155 -155 0 c-85 0 -155 -3 -155 -8z"/>
 </g>
<g id="layer110" fill="#5268dd" stroke="none">
 <path d="M0 2370 l0 -2370 1063 2 1062 3 3 341 2 341 93 6 c252 15 525 116 732 269 98 73 229 208 304 313 65 93 147 251 182 352 28 83 59 245 66 350 l6 93 355 0 355 0 -7 -107 c-27 -405 -137 -736 -355 -1059 -296 -441 -760 -760 -1266 -871 l-129 -28 1169 -3 c642 -1 1170 -1 1172 1 2 2 2 956 1 2121 l-3 2117 -470 -471 c-258 -259 -477 -475 -486 -480 -12 -7 -26 5 -65 58 -62 86 -290 314 -376 376 -53 39 -65 53 -58 65 5 9 159 165 342 348 183 183 394 393 468 468 l135 135 -2148 0 -2147 0 0 -2370z m2130 1435 l0 -355 -47 0 c-59 0 -226 -25 -311 -46 -34 -9 -68 -17 -75 -18 -72 -15 -277 -126 -394 -213 -322 -240 -524 -610 -550 -1005 l-6 -98 -354 0 -353 0 0 63 c0 220 69 523 173 767 316 737 1057 1238 1860 1259 l57 1 0 -355z"/>
 <path d="M4500 4732 c0 -9 293 -302 303 -302 4 0 7 70 7 155 l0 155 -155 0 c-85 0 -155 -3 -155 -8z"/>
 </g>
<g id="layer111" fill="#5058f6" stroke="none">
 <path d="M0 2370 l0 -2370 1063 2 1062 3 3 341 2 341 93 6 c252 15 525 116 732 269 98 73 229 208 304 313 65 93 147 251 182 352 28 83 59 245 66 350 l6 93 338 0 c185 0 345 3 355 7 16 6 17 -2 10 -108 -25 -407 -136 -739 -355 -1065 -296 -441 -760 -760 -1266 -871 l-129 -28 1169 -3 c642 -1 1170 -1 1172 1 2 2 2 956 1 2121 l-3 2117 -480 -481 c-264 -264 -481 -484 -483 -490 -2 -5 -15 5 -30 23 -49 58 -92 116 -92 123 0 4 -22 27 -49 53 -26 25 -51 54 -54 64 -4 9 -17 21 -29 26 -13 5 -42 30 -65 55 -23 25 -45 46 -48 46 -6 0 -67 46 -122 92 -18 15 -28 28 -23 30 9 3 350 341 830 823 l135 135 -2148 0 -2147 0 0 -2370z m2132 1629 c-2 -88 0 -168 4 -177 11 -28 13 -61 3 -67 -5 -4 -9 -62 -9 -131 0 -94 4 -130 15 -148 l15 -23 -62 -2 c-79 -2 -242 -26 -325 -47 -35 -9 -69 -17 -76 -18 -72 -15 -277 -126 -394 -213 -322 -240 -524 -610 -550 -1005 l-6 -98 -354 0 -353 0 0 63 c0 220 69 523 173 767 317 738 1057 1239 1862 1259 l60 1 -3 -161z m265 135 c-3 -3 -12 -4 -19 -1 -8 3 -5 6 6 6 11 1 17 -2 13 -5z m120 -21 c-4 -3 -10 -3 -14 0 -3 4 0 7 7 7 7 0 10 -3 7 -7z m140 -30 c-4 -3 -10 -3 -14 0 -3 4 0 7 7 7 7 0 10 -3 7 -7z m43 -13 c-8 -5 -19 -10 -25 -10 -5 0 -3 5 5 10 8 5 20 10 25 10 6 0 3 -5 -5 -10z m37 -7 c-4 -3 -10 -3 -14 0 -3 4 0 7 7 7 7 0 10 -3 7 -7z m323 -123 c8 -5 11 -10 5 -10 -5 0 -17 5 -25 10 -8 5 -10 10 -5 10 6 0 17 -5 25 -10z m65 -40 c3 -5 4 -10 1 -10 -3 0 -8 5 -11 10 -3 6 -4 10 -1 10 3 0 8 -4 11 -10z m140 -80 c3 -5 1 -10 -4 -10 -6 0 -11 5 -11 10 0 6 2 10 4 10 3 0 8 -4 11 -10z m30 -20 c3 -5 1 -10 -4 -10 -6 0 -11 5 -11 10 0 6 2 10 4 10 3 0 8 -4 11 -10z m-225 -244 c0 -3 -5 -8 -12 -12 -7 -4 -8 -3 -4 4 7 12 16 16 16 8z m45 -16 c10 -11 16 -20 13 -20 -3 0 -13 9 -23 20 -10 11 -16 20 -13 20 3 0 13 -9 23 -20z m-20 -10 c3 -5 2 -10 -4 -10 -5 0 -13 5 -16 10 -3 6 -2 10 4 10 5 0 13 -4 16 -10z m28 -48 c11 -12 13 -22 7 -32 -8 -13 -10 -13 -10 -1 0 8 -7 23 -17 33 -9 10 -12 18 -6 18 5 0 17 -8 26 -18z m48 1 c13 -16 12 -17 -3 -4 -17 13 -22 21 -14 21 2 0 10 -8 17 -17z m-137 -26 c4 -19 3 -26 -4 -22 -5 3 -10 18 -10 32 0 32 5 28 14 -10z m-821 -4 c-7 -2 -21 -2 -30 0 -10 3 -4 5 12 5 17 0 24 -2 18 -5z m64 1 c-3 -3 -12 -4 -19 -1 -8 3 -5 6 6 6 11 1 17 -2 13 -5z m901 -19 c-3 -3 -9 2 -12 12 -6 14 -5 15 5 6 7 -7 10 -15 7 -18z m-861 9 c-3 -3 -12 -4 -19 -1 -8 3 -5 6 6 6 11 1 17 -2 13 -5z m753 -18 c0 -3 -5 -8 -12 -12 -7 -4 -8 -3 -4 4 7 12 16 16 16 8z m27 -13 c-4 -3 -10 -3 -14 0 -3 4 0 7 7 7 7 0 10 -3 7 -7z m53 -7 c0 -3 -5 -8 -12 -12 -7 -4 -8 -3 -4 4 7 12 16 16 16 8z m-563 -23 c-4 -3 -10 -3 -14 0 -3 4 0 7 7 7 7 0 10 -3 7 -7z m647 -37 c-16 -12 -37 -29 -46 -38 -10 -10 -21 -18 -25 -18 -4 0 15 23 42 50 28 28 52 45 54 39 2 -7 -9 -22 -25 -33z m-157 27 c-4 -3 -10 -3 -14 0 -3 4 0 7 7 7 7 0 10 -3 7 -7z m56 0 c-7 -2 -19 -2 -25 0 -7 3 -2 5 12 5 14 0 19 -2 13 -5z m47 -19 c-8 -8 -23 -20 -34 -25 -13 -7 -9 -1 9 15 34 29 43 33 25 10z m-493 -11 c-4 -3 -10 -3 -14 0 -3 4 0 7 7 7 7 0 10 -3 7 -7z m634 -10 c13 -16 12 -17 -3 -4 -17 13 -22 21 -14 21 2 0 10 -8 17 -17z m-54 -20 c-4 -3 -7 0 -7 7 0 7 3 10 7 7 3 -4 3 -10 0 -14z m-122 -13 c3 -5 4 -10 1 -10 -3 0 -8 5 -11 10 -3 6 -4 10 -1 10 3 0 8 -4 11 -10z m196 -13 c-13 -13 -26 -3 -16 12 3 6 11 8 17 5 6 -4 6 -10 -1 -17z m49 -22 c13 -14 21 -25 18 -25 -2 0 -15 11 -28 25 -13 14 -21 25 -18 25 2 0 15 -11 28 -25z m-140 1 c0 -3 -5 -8 -12 -12 -7 -4 -8 -3 -4 4 7 12 16 16 16 8z m-49 -23 c13 -16 12 -17 -3 -4 -17 13 -22 21 -14 21 2 0 10 -8 17 -17z m154 7 c3 -5 4 -10 1 -10 -3 0 -8 5 -11 10 -3 6 -4 10 -1 10 3 0 8 -4 11 -10z m-85 -15 c-10 -12 -10 -15 0 -15 8 0 11 -3 7 -6 -3 -3 -15 -3 -27 1 l-22 7 23 13 c32 17 33 17 19 0z m-375 -5 c3 -5 4 -10 1 -10 -3 0 -8 5 -11 10 -3 6 -4 10 -1 10 3 0 8 -4 11 -10z m962 -7 c-4 -3 -7 0 -7 7 0 7 3 10 7 7 3 -4 3 -10 0 -14z m-932 -13 c3 -5 4 -10 1 -10 -3 0 -8 5 -11 10 -3 6 -4 10 -1 10 3 0 8 -4 11 -10z m442 3 c-4 -3 -10 -3 -14 0 -3 4 0 7 7 7 7 0 10 -3 7 -7z m-43 -35 c-3 -5 -12 -4 -20 3 -7 6 -11 15 -8 21 3 5 12 4 20 -3 7 -6 11 -15 8 -21z m96 25 c0 -14 -84 -82 -94 -76 -5 4 0 10 12 14 12 5 22 15 22 24 0 8 6 15 14 15 8 0 16 7 20 15 5 15 26 21 26 8z m465 -3 c3 -5 1 -10 -4 -10 -6 0 -11 5 -11 10 0 6 2 10 4 10 3 0 8 -4 11 -10z m-434 -23 c-10 -9 -11 -8 -5 6 3 10 9 15 12 12 3 -3 0 -11 -7 -18z m-186 3 c3 -5 4 -10 1 -10 -3 0 -8 5 -11 10 -3 6 -4 10 -1 10 3 0 8 -4 11 -10z m202 -36 c-3 -3 -12 -4 -19 -1 -8 3 -5 6 6 6 11 1 17 -2 13 -5z m458 -14 c3 -5 4 -10 1 -10 -3 0 -8 5 -11 10 -3 6 -4 10 -1 10 3 0 8 -4 11 -10z m-445 -45 c-24 -24 -46 -42 -49 -40 -5 6 70 81 84 84 5 0 -11 -19 -35 -44z m-54 6 c-12 -19 -24 -12 -19 10 4 13 9 17 15 11 6 -6 7 -15 4 -21z m-351 -1 c10 -11 16 -20 13 -20 -3 0 -13 9 -23 20 -10 11 -16 20 -13 20 3 0 13 -9 23 -20z m462 -7 c-4 -3 -10 -3 -14 0 -3 4 0 7 7 7 7 0 10 -3 7 -7z m428 -23 c3 -5 4 -10 1 -10 -3 0 -8 5 -11 10 -3 6 -4 10 -1 10 3 0 8 -4 11 -10z m-434 -17 c13 -16 12 -17 -3 -4 -17 13 -22 21 -14 21 2 0 10 -8 17 -17z m-41 -24 c0 -11 -4 -17 -10 -14 -5 3 -10 13 -10 21 0 8 5 14 10 14 6 0 10 -9 10 -21z m-335 -9 c10 -11 16 -20 13 -20 -3 0 -13 9 -23 20 -10 11 -16 20 -13 20 3 0 13 -9 23 -20z m360 0 c3 -5 4 -10 1 -10 -3 0 -8 5 -11 10 -3 6 -4 10 -1 10 3 0 8 -4 11 -10z m495 -35 c0 -5 -5 -3 -10 5 -5 8 -10 20 -10 25 0 6 5 3 10 -5 5 -8 10 -19 10 -25z m-483 -21 c3 -8 1 -20 -6 -27 -8 -8 -15 -6 -25 8 -11 15 -11 22 -3 27 18 12 27 9 34 -8z m-303 -20 c3 -8 2 -12 -4 -9 -6 3 -10 10 -10 16 0 14 7 11 14 -7z m813 -31 c-4 -3 -7 0 -7 7 0 7 3 10 7 7 3 -4 3 -10 0 -14z m-762 -43 c3 -5 4 -10 1 -10 -3 0 -8 5 -11 10 -3 6 -4 10 -1 10 3 0 8 -4 11 -10z m25 -30 c0 -5 -2 -10 -4 -10 -3 0 -8 5 -11 10 -3 6 -1 10 4 10 6 0 11 -4 11 -10z m827 -167 c-4 -3 -7 0 -7 7 0 7 3 10 7 7 3 -4 3 -10 0 -14z m4 -44 c-5 -13 -10 -19 -10 -12 -1 15 10 45 15 40 3 -2 0 -15 -5 -28z m-724 -6 c-4 -3 -7 0 -7 7 0 7 3 10 7 7 3 -4 3 -10 0 -14z m740 -30 c-4 -3 -7 0 -7 7 0 7 3 10 7 7 3 -4 3 -10 0 -14z m-700 -70 c-4 -3 -7 0 -7 7 0 7 3 10 7 7 3 -4 3 -10 0 -14z m750 -195 c-3 -8 -6 -5 -6 6 -1 11 2 17 5 13 3 -3 4 -12 1 -19z m10 -80 c-3 -8 -6 -5 -6 6 -1 11 2 17 5 13 3 -3 4 -12 1 -19z m-690 -50 c-3 -7 -5 -2 -5 12 0 14 2 19 5 13 2 -7 2 -19 0 -25z m0 -60 c-3 -8 -6 -5 -6 6 -1 11 2 17 5 13 3 -3 4 -12 1 -19z"/>
 <path d="M3305 3190 c3 -5 8 -10 11 -10 3 0 2 5 -1 10 -3 6 -8 10 -11 10 -3 0 -2 -4 1 -10z"/>
 <path d="M4500 4732 c0 -9 293 -302 303 -302 4 0 7 70 7 155 l0 155 -155 0 c-85 0 -155 -3 -155 -8z"/>
 </g>
<g id="layer112" fill="#526def" stroke="none">
 <path d="M0 2370 l0 -2370 1063 2 1062 3 3 341 2 341 93 6 c119 7 226 29 363 75 339 115 629 375 789 707 60 124 86 202 109 325 17 94 35 285 31 340 -2 19 -4 58 -5 85 -5 99 -32 204 -96 367 -41 107 -53 129 -111 215 -24 34 -43 65 -43 70 -1 26 -298 323 -323 323 -5 0 -38 21 -75 47 -93 65 -303 152 -437 182 -167 37 -447 27 -652 -25 -35 -9 -69 -17 -76 -18 -72 -15 -277 -126 -394 -213 -322 -240 -524 -610 -550 -1006 l-6 -97 -354 0 -353 0 0 63 c0 148 47 418 101 578 227 678 745 1174 1435 1374 162 47 320 67 519 67 217 0 312 -11 332 -38 12 -17 1 -31 -139 -171 -84 -84 -150 -154 -147 -157 3 -3 74 64 158 149 l154 154 207 -207 c240 -239 260 -258 260 -247 0 4 -100 109 -222 232 -123 123 -224 228 -226 232 -7 21 25 20 135 -3 128 -27 189 -46 304 -95 41 -18 83 -36 94 -40 63 -26 177 -89 197 -109 7 -7 17 -12 23 -12 7 0 31 -14 54 -31 23 -16 47 -29 52 -27 8 3 353 345 829 823 l135 135 -2148 0 -2147 0 0 -2370z m2460 1750 c0 -5 -2 -10 -4 -10 -3 0 -8 5 -11 10 -3 6 -1 10 4 10 6 0 11 -4 11 -10z"/>
 <path d="M4500 4732 c0 -9 293 -302 303 -302 4 0 7 70 7 155 l0 155 -155 0 c-85 0 -155 -3 -155 -8z"/>
 <path d="M4325 3760 c-264 -264 -481 -484 -483 -490 -2 -6 10 -29 27 -52 17 -23 31 -46 31 -52 0 -5 6 -17 14 -25 7 -9 24 -36 37 -61 13 -25 29 -52 35 -60 36 -44 147 -352 169 -468 17 -89 17 -93 -1 -113 -18 -20 -21 -17 -257 218 -132 131 -237 232 -235 225 2 -7 107 -117 233 -243 l230 -229 -165 -165 c-91 -91 -160 -165 -155 -165 5 0 82 72 170 160 l161 161 32 -35 c21 -24 32 -46 33 -68 1 -18 4 -46 8 -63 3 -16 4 -56 1 -88 -3 -32 -2 -61 3 -64 23 -14 -16 -369 -60 -538 -194 -749 -813 -1349 -1558 -1512 l-129 -28 1169 -3 c642 -1 1170 -1 1172 1 2 2 2 956 1 2121 l-3 2117 -480 -481z m-136 -1380 c1 -10 -5 -8 -21 7 -19 19 -20 24 -7 39 13 15 14 15 20 -7 4 -13 7 -31 8 -39z"/>
 <path d="M2137 3753 c-4 -3 -7 -11 -7 -17 0 -6 5 -5 12 2 6 6 9 14 7 17 -3 3 -9 2 -12 -2z"/>
 <path d="M3043 3530 c-47 -42 -46 -87 2 -129 29 -25 41 -29 68 -25 17 4 45 19 62 35 l29 29 -59 60 c-33 33 -62 60 -65 60 -3 0 -20 -14 -37 -30z m47 -4 c-3 -12 52 -66 66 -66 24 0 26 -22 3 -46 -31 -33 -75 -32 -111 3 -35 34 -35 59 -1 95 25 26 47 33 43 14z"/>
 <path d="M3064 3476 c-3 -8 -4 -23 -2 -33 5 -25 51 -25 56 0 7 36 -42 65 -54 33z"/>
 <path d="M2135 3490 c3 -5 8 -10 11 -10 3 0 2 5 -1 10 -3 6 -8 10 -11 10 -3 0 -2 -4 1 -10z"/>
 <path d="M3183 3360 c-41 -37 -49 -50 -39 -59 9 -8 24 2 61 39 67 68 48 85 -22 20z"/>
 <path d="M3248 3359 c-20 -21 -23 -51 -8 -79 14 -27 -4 -33 -25 -10 -21 23 -35 26 -35 7 0 -20 33 -47 57 -47 34 0 49 26 35 63 -15 40 -8 46 22 18 17 -16 26 -19 31 -11 5 7 -6 25 -26 45 -33 31 -35 32 -51 14z"/>
 <path d="M3336 3281 c-3 -4 3 -16 14 -26 19 -17 27 -45 13 -45 -3 0 -15 8 -25 17 -14 12 -21 14 -30 5 -9 -9 -7 -16 6 -31 9 -10 13 -22 8 -25 -5 -3 -17 3 -27 14 -18 20 -45 27 -45 12 0 -5 13 -20 28 -35 34 -32 72 -36 79 -7 3 11 11 20 17 20 7 0 19 11 26 25 12 23 11 28 -15 55 -30 31 -40 36 -49 21z"/>
 <path d="M3377 3161 l-47 -47 33 -32 c18 -18 40 -32 48 -32 17 0 49 30 49 47 0 5 12 15 26 22 21 9 24 14 14 26 -9 11 -16 12 -30 3 -9 -6 -25 -8 -35 -4 -17 6 -17 7 0 26 15 17 14 42 -3 39 -4 -1 -28 -23 -55 -48z m53 -61 c0 -18 -22 -22 -37 -7 -21 21 -8 40 18 27 10 -6 19 -15 19 -20z"/>
 <path d="M3472 3077 c-23 -23 -42 -47 -42 -53 0 -20 60 -68 70 -58 7 7 4 16 -10 29 -21 19 -27 45 -10 45 6 0 10 -3 10 -8 0 -4 10 -13 21 -20 30 -19 45 0 19 23 -24 22 -25 29 -4 49 14 15 12 36 -5 36 -4 0 -26 -19 -49 -43z"/>
 <path d="M3526 2933 c-6 -14 -5 -15 5 -6 7 7 10 15 7 18 -3 3 -9 -2 -12 -12z"/>
 <path d="M3561 2094 c0 -11 3 -14 6 -6 3 7 2 16 -1 19 -3 4 -6 -2 -5 -13z"/>
 </g>
<g id="layer113" fill="#f9b800" stroke="none">
 <path d="M0 2370 l0 -2370 1063 2 1062 3 3 341 2 341 93 6 c119 7 226 29 363 75 339 115 629 375 789 707 60 124 86 202 109 325 61 324 27 593 -109 875 -183 377 -530 652 -945 749 -179 41 -445 33 -658 -20 -34 -9 -68 -17 -75 -18 -72 -15 -277 -126 -394 -213 -322 -240 -524 -610 -550 -1006 l-6 -97 -354 0 -353 0 0 63 c0 89 17 223 45 363 168 834 857 1494 1705 1636 133 22 409 29 540 14 109 -13 322 -54 395 -77 181 -55 452 -183 563 -266 18 -13 37 -23 42 -21 9 3 348 339 830 823 l135 135 -2148 0 -2147 0 0 -2370z"/>
 <path d="M4500 4732 c0 -9 293 -302 303 -302 4 0 7 70 7 155 l0 155 -155 0 c-85 0 -155 -3 -155 -8z"/>
 <path d="M4325 3760 c-264 -264 -481 -484 -483 -490 -2 -5 8 -24 21 -42 96 -129 234 -434 282 -623 89 -348 91 -738 8 -1060 -194 -749 -813 -1349 -1558 -1512 l-129 -28 1169 -3 c642 -1 1170 -1 1172 1 2 2 2 956 1 2121 l-3 2117 -480 -481z"/>
 <path d="M2444 4098 c-4 -7 -3 -8 4 -4 7 4 12 9 12 12 0 8 -9 4 -16 -8z"/>
 <path d="M3100 3521 c0 -13 48 -61 61 -61 7 0 -2 16 -21 35 -36 37 -40 40 -40 26z"/>
 <path d="M3064 3465 c-4 -9 -2 -21 4 -27 16 -16 47 -5 47 17 0 26 -42 34 -51 10z"/>
 <path d="M3187 3355 c-26 -24 -43 -46 -37 -50 9 -6 90 72 90 88 0 11 -1 10 -53 -38z"/>
 <path d="M3250 3355 c-8 -10 -10 -30 -6 -60 6 -36 4 -45 -7 -45 -8 0 -20 7 -27 15 -7 8 -17 15 -23 15 -6 0 0 -11 13 -25 13 -14 31 -25 41 -25 26 0 39 29 27 56 -6 13 -8 30 -4 40 6 15 9 15 31 -6 26 -24 34 -17 12 10 -27 34 -44 41 -57 25z"/>
 <path d="M3340 3283 c0 -5 9 -18 20 -28 36 -33 14 -69 -23 -37 -24 21 -34 7 -12 -18 16 -18 17 -20 1 -26 -11 -4 -26 2 -42 16 -13 13 -24 19 -24 13 0 -15 44 -53 62 -53 20 0 78 54 78 72 0 8 -13 27 -30 43 -16 16 -30 24 -30 18z"/>
 <path d="M3382 3157 l-42 -43 29 -28 c34 -33 61 -31 79 6 7 15 21 30 32 33 11 4 18 10 15 15 -3 5 -17 4 -31 -2 -33 -16 -54 3 -36 32 29 46 6 40 -46 -13z m44 -66 c-10 -16 -31 -14 -46 4 -10 12 -10 18 0 31 12 13 15 13 33 -4 11 -11 16 -25 13 -31z"/>
 <path d="M3482 3077 c-23 -24 -42 -47 -42 -53 0 -6 14 -23 30 -39 34 -33 41 -23 9 12 -18 19 -20 25 -9 38 12 14 15 14 35 -5 31 -29 43 -25 15 5 l-23 25 22 24 c41 43 5 36 -37 -7z"/>
 </g>
<g id="layer114" fill="#efc71d" stroke="none">
 <path d="M0 2370 l0 -2370 889 0 c490 0 892 4 895 8 3 5 -22 14 -55 21 -46 9 -69 20 -95 47 -24 23 -44 34 -64 34 -17 0 -30 -4 -30 -9 0 -19 -31 -19 -82 -2 -54 19 -281 115 -308 131 -161 94 -337 220 -405 289 -21 23 -44 41 -51 41 -6 0 -17 7 -24 15 -11 13 -9 20 11 43 l24 27 -27 -24 c-23 -20 -30 -22 -43 -11 -8 7 -15 18 -15 25 0 7 -23 33 -50 59 -27 26 -50 49 -50 52 0 3 -26 40 -58 82 -49 64 -138 201 -172 262 -16 30 -89 196 -114 262 -30 76 -32 103 -11 124 24 24 18 47 -25 95 -30 33 -43 60 -55 109 -17 69 -25 120 -25 159 0 13 -4 40 -9 60 -5 20 -6 66 -2 104 4 37 3 67 -1 67 -22 0 -2 234 37 426 168 834 857 1494 1705 1636 133 22 409 29 540 14 109 -13 322 -54 395 -77 181 -55 452 -183 563 -266 18 -13 37 -23 42 -21 9 3 348 339 830 823 l135 135 -2148 0 -2147 0 0 -2370z m145 -839 c10 -21 12 -32 4 -37 -14 -8 -29 14 -29 44 0 30 6 28 25 -7z m1456 -1451 c32 -18 21 -29 -16 -17 -36 11 -47 27 -19 27 8 0 24 -5 35 -10z"/>
 <path d="M4500 4732 c0 -9 293 -302 303 -302 4 0 7 70 7 155 l0 155 -155 0 c-85 0 -155 -3 -155 -8z"/>
 <path d="M4325 3760 c-264 -264 -481 -484 -483 -490 -2 -5 8 -24 21 -42 96 -129 234 -434 282 -623 89 -348 91 -738 8 -1060 -194 -749 -813 -1349 -1558 -1512 l-129 -28 1169 -3 c642 -1 1170 -1 1172 1 2 2 2 956 1 2121 l-3 2117 -480 -481z"/>
 <path d="M2444 4098 c-4 -7 -3 -8 4 -4 7 4 12 9 12 12 0 8 -9 4 -16 -8z"/>
 <path d="M3100 3521 c0 -13 48 -61 61 -61 7 0 -2 16 -21 35 -36 37 -40 40 -40 26z"/>
 <path d="M3064 3465 c-4 -9 -2 -21 4 -27 16 -16 47 -5 47 17 0 26 -42 34 -51 10z"/>
 <path d="M2051 3448 c-105 -8 -239 -31 -316 -54 -27 -8 -51 -14 -52 -14 -2 0 -22 -8 -45 -17 -109 -43 -232 -113 -335 -190 -271 -202 -455 -491 -524 -821 -22 -103 -43 -344 -33 -374 3 -11 6 -36 6 -57 -1 -41 30 -200 54 -280 25 -85 101 -237 172 -346 160 -245 456 -467 737 -553 79 -24 253 -57 261 -49 3 2 23 1 45 -4 49 -11 266 4 375 26 429 87 790 368 979 760 60 124 86 202 109 325 61 324 27 593 -109 875 -211 435 -656 743 -1115 771 -58 3 -107 7 -110 8 -3 1 -47 -1 -99 -6z"/>
 <path d="M3187 3355 c-26 -24 -43 -46 -37 -50 9 -6 90 72 90 88 0 11 -1 10 -53 -38z"/>
 <path d="M3250 3355 c-8 -10 -10 -30 -6 -60 6 -36 4 -45 -7 -45 -8 0 -20 7 -27 15 -7 8 -17 15 -23 15 -6 0 0 -11 13 -25 13 -14 31 -25 41 -25 26 0 39 29 27 56 -6 13 -8 30 -4 40 6 15 9 15 31 -6 26 -24 34 -17 12 10 -27 34 -44 41 -57 25z"/>
 <path d="M3340 3283 c0 -5 9 -18 20 -28 36 -33 14 -69 -23 -37 -24 21 -34 7 -12 -18 16 -18 17 -20 1 -26 -11 -4 -26 2 -42 16 -13 13 -24 19 -24 13 0 -15 44 -53 62 -53 20 0 78 54 78 72 0 8 -13 27 -30 43 -16 16 -30 24 -30 18z"/>
 <path d="M3382 3157 l-42 -43 29 -28 c34 -33 61 -31 79 6 7 15 21 30 32 33 11 4 18 10 15 15 -3 5 -17 4 -31 -2 -33 -16 -54 3 -36 32 29 46 6 40 -46 -13z m44 -66 c-10 -16 -31 -14 -46 4 -10 12 -10 18 0 31 12 13 15 13 33 -4 11 -11 16 -25 13 -31z"/>
 <path d="M3482 3077 c-23 -24 -42 -47 -42 -53 0 -6 14 -23 30 -39 34 -33 41 -23 9 12 -18 19 -20 25 -9 38 12 14 15 14 35 -5 31 -29 43 -25 15 5 l-23 25 22 24 c41 43 5 36 -37 -7z"/>
 <path d="M1124 1068 c-4 -7 -3 -8 4 -4 12 7 16 16 8 16 -3 0 -8 -5 -12 -12z"/>
 <path d="M989 933 c-13 -16 -12 -17 4 -4 9 7 17 15 17 17 0 8 -8 3 -21 -13z"/>
 <path d="M874 818 c-4 -7 -3 -8 4 -4 12 7 16 16 8 16 -3 0 -8 -5 -12 -12z"/>
 <path d="M749 693 l-24 -28 28 24 c25 23 32 31 24 31 -2 0 -14 -12 -28 -27z"/>
 <path d="M1843 3 c4 -3 10 -3 14 0 3 4 0 7 -7 7 -7 0 -10 -3 -7 -7z"/>
 </g>
<g id="layer115" fill="#638af2" stroke="none">
 <path d="M0 2370 l0 -2370 893 0 c579 0 887 4 877 10 -8 5 -25 10 -38 10 -39 0 -250 59 -345 97 -363 142 -694 388 -911 678 -140 186 -264 417 -329 615 -66 199 -107 453 -107 665 0 1013 746 1889 1750 2057 133 22 409 29 540 14 109 -13 322 -54 395 -77 181 -55 452 -183 563 -266 18 -13 37 -23 42 -21 9 3 348 339 830 823 l135 135 -2148 0 -2147 0 0 -2370z"/>
 <path d="M4500 4732 c0 -9 293 -302 303 -302 4 0 7 70 7 155 l0 155 -155 0 c-85 0 -155 -3 -155 -8z"/>
 <path d="M4325 3760 c-264 -264 -481 -484 -483 -490 -2 -5 8 -24 21 -42 96 -129 234 -434 282 -623 89 -348 91 -738 8 -1060 -194 -749 -813 -1349 -1558 -1512 l-129 -28 1169 -3 c642 -1 1170 -1 1172 1 2 2 2 956 1 2121 l-3 2117 -480 -481z"/>
 <path d="M2444 4098 c-4 -7 -3 -8 4 -4 7 4 12 9 12 12 0 8 -9 4 -16 -8z"/>
 <path d="M3100 3521 c0 -13 48 -61 61 -61 7 0 -2 16 -21 35 -36 37 -40 40 -40 26z"/>
 <path d="M3064 3465 c-4 -9 -2 -21 4 -27 16 -16 47 -5 47 17 0 26 -42 34 -51 10z"/>
 <path d="M2051 3448 c-105 -8 -239 -31 -316 -54 -27 -8 -51 -14 -52 -14 -2 0 -22 -8 -45 -17 -109 -43 -232 -113 -335 -190 -269 -201 -451 -484 -524 -818 -29 -129 -36 -350 -16 -485 92 -610 580 -1090 1192 -1171 111 -14 342 -6 445 16 433 93 787 369 975 760 60 124 86 202 109 325 61 324 27 593 -109 875 -211 435 -656 743 -1115 771 -58 3 -107 7 -110 8 -3 1 -47 -1 -99 -6z"/>
 <path d="M3187 3355 c-26 -24 -43 -46 -37 -50 9 -6 90 72 90 88 0 11 -1 10 -53 -38z"/>
 <path d="M3250 3355 c-8 -10 -10 -30 -6 -60 6 -36 4 -45 -7 -45 -8 0 -20 7 -27 15 -7 8 -17 15 -23 15 -6 0 0 -11 13 -25 13 -14 31 -25 41 -25 26 0 39 29 27 56 -6 13 -8 30 -4 40 6 15 9 15 31 -6 26 -24 34 -17 12 10 -27 34 -44 41 -57 25z"/>
 <path d="M3340 3283 c0 -5 9 -18 20 -28 36 -33 14 -69 -23 -37 -24 21 -34 7 -12 -18 16 -18 17 -20 1 -26 -11 -4 -26 2 -42 16 -13 13 -24 19 -24 13 0 -15 44 -53 62 -53 20 0 78 54 78 72 0 8 -13 27 -30 43 -16 16 -30 24 -30 18z"/>
 <path d="M3382 3157 l-42 -43 29 -28 c34 -33 61 -31 79 6 7 15 21 30 32 33 11 4 18 10 15 15 -3 5 -17 4 -31 -2 -33 -16 -54 3 -36 32 29 46 6 40 -46 -13z m44 -66 c-10 -16 -31 -14 -46 4 -10 12 -10 18 0 31 12 13 15 13 33 -4 11 -11 16 -25 13 -31z"/>
 <path d="M3482 3077 c-23 -24 -42 -47 -42 -53 0 -6 14 -23 30 -39 34 -33 41 -23 9 12 -18 19 -20 25 -9 38 12 14 15 14 35 -5 31 -29 43 -25 15 5 l-23 25 22 24 c41 43 5 36 -37 -7z"/>
 </g>
<g id="layer116" fill="#e5eadd" stroke="none">
 <path d="M0 2370 l0 -2370 893 0 c579 0 887 4 877 10 -8 5 -25 10 -38 10 -39 0 -250 59 -345 97 -363 142 -694 388 -911 678 -140 186 -264 417 -329 615 -66 199 -107 453 -107 665 0 1013 744 1888 1750 2057 98 16 170 21 335 22 285 0 432 -22 680 -105 115 -39 353 -153 447 -216 40 -26 76 -48 80 -48 7 0 322 312 828 820 l135 135 -2148 0 -2147 0 0 -2370z"/>
 <path d="M4500 4732 c0 -9 293 -302 303 -302 4 0 7 70 7 155 l0 155 -155 0 c-85 0 -155 -3 -155 -8z"/>
 <path d="M4325 3760 c-264 -264 -479 -485 -478 -490 2 -5 23 -41 47 -79 145 -226 254 -510 298 -776 28 -172 31 -484 4 -655 -129 -849 -776 -1547 -1601 -1727 l-129 -28 1169 -3 c642 -1 1170 -1 1172 1 2 2 2 956 1 2121 l-3 2117 -480 -481z"/>
 <path d="M1927 3435 c-48 -8 -117 -22 -153 -31 -36 -9 -70 -17 -77 -18 -72 -15 -277 -126 -394 -213 -269 -201 -451 -484 -524 -818 -29 -129 -36 -350 -16 -485 92 -610 580 -1090 1192 -1171 111 -14 342 -6 445 16 41 9 125 33 186 53 335 114 628 374 786 699 91 190 127 336 135 558 20 526 -263 1013 -737 1267 -106 57 -225 99 -360 128 -135 29 -357 35 -483 15z"/>
 </g>
<g id="layer117" fill="#fefffe" stroke="none">
 <path d="M0 3965 c0 -510 3 -775 10 -775 5 0 9 3 9 8 -4 25 1 32 15 20 11 -10 9 -16 -10 -31 l-24 -18 0 -914 0 -914 23 -4 22 -4 -22 -2 -23 -1 0 -665 0 -665 733 0 c573 0 736 3 746 12 11 11 13 11 7 0 -5 -9 9 -12 58 -12 58 0 66 2 66 19 0 17 -16 26 -60 36 -8 2 -28 6 -44 10 -17 3 -41 12 -55 20 -14 8 -45 19 -68 25 -97 24 -447 220 -528 296 -14 13 -29 24 -33 24 -4 0 -21 16 -37 35 -17 19 -34 35 -39 35 -12 0 -186 176 -186 188 0 5 -16 22 -35 36 -19 15 -35 31 -35 36 0 5 -11 21 -24 35 -28 30 -124 174 -151 225 -10 19 -22 42 -26 50 -48 87 -91 178 -113 240 -15 41 -31 84 -36 95 -10 23 -22 64 -26 85 -7 44 -18 60 -39 60 -13 0 -33 9 -46 21 l-24 21 25 -16 c51 -33 77 -14 52 37 -8 15 -11 39 -8 52 3 13 2 26 -4 30 -5 3 -9 18 -9 33 0 15 -3 45 -6 67 -28 206 -16 608 22 705 3 8 7 30 9 48 6 64 106 338 166 456 70 139 188 322 253 391 25 27 45 51 45 53 0 12 196 202 208 202 7 0 15 7 19 16 5 14 195 164 208 164 4 0 27 14 52 31 107 74 497 240 524 224 4 -3 11 0 14 6 4 5 13 8 21 5 7 -3 16 -1 19 5 4 5 12 9 18 8 7 -1 25 3 42 10 16 7 37 10 47 8 10 -3 21 -1 24 5 3 5 15 8 25 5 10 -3 22 -1 25 5 4 5 19 7 35 4 16 -3 31 -1 35 5 4 8 27 9 66 5 41 -5 64 -3 74 5 11 9 45 10 137 4 67 -5 148 -8 179 -7 31 1 59 -2 62 -7 4 -5 15 -7 26 -4 11 3 27 0 35 -7 8 -6 18 -9 24 -6 15 10 268 -51 312 -74 10 -6 26 -10 35 -10 10 0 38 -9 63 -21 25 -11 60 -27 76 -34 17 -7 41 -18 55 -24 14 -6 32 -15 40 -20 8 -5 35 -19 60 -30 25 -12 59 -30 75 -41 47 -30 69 -43 113 -68 l41 -22 458 458 c252 252 464 466 472 475 13 16 -58 17 -1252 17 l-1266 0 -4 -23 -4 -22 -2 23 -1 22 -870 0 -870 0 0 -775z m1857 738 c-4 -3 -7 0 -7 7 0 7 3 10 7 7 3 -4 3 -10 0 -14z m1450 10 c-4 -3 -10 -3 -14 0 -3 4 0 7 7 7 7 0 10 -3 7 -7z m-1457 -85 c0 -20 -39 -26 -41 -5 0 6 -2 24 -3 39 l-2 27 23 -21 c13 -12 23 -30 23 -40z m-65 42 c3 -5 4 -10 1 -10 -3 0 -8 5 -11 10 -3 6 -4 10 -1 10 3 0 8 -4 11 -10z m-1718 -1487 c-4 -3 -7 0 -7 7 0 7 3 10 7 7 3 -4 3 -10 0 -14z m-20 -20 c-4 -3 -1 -13 6 -22 11 -14 10 -14 -5 -2 -16 12 -16 31 -1 31 4 0 3 -3 0 -7z m43 -7 c0 -3 -5 -8 -12 -12 -7 -4 -8 -3 -4 4 7 12 16 16 16 8z m70 -60 c0 -6 -5 -3 -11 7 -5 9 -17 17 -26 17 -9 0 -13 3 -10 7 4 3 1 13 -5 22 -7 9 2 3 20 -13 18 -17 32 -35 32 -40z m-124 -5 c-4 -6 -13 -11 -19 -11 -8 0 -7 4 2 9 13 8 13 12 1 28 -13 17 -13 17 4 1 10 -9 15 -21 12 -27z m99 -20 c-3 -10 1 -24 10 -31 17 -14 20 -40 4 -40 -5 0 -7 5 -4 11 4 5 0 18 -9 28 -9 10 -14 25 -10 35 9 22 17 20 9 -3z m-70 -21 c-8 -9 -15 -21 -15 -26 0 -18 56 -64 66 -55 5 5 16 2 26 -8 16 -16 16 -19 2 -37 -13 -16 -16 -17 -21 -4 -3 8 -23 32 -45 52 -46 46 -53 95 -13 95 13 0 13 -2 0 -17z m-10 -1380 c3 -5 1 -10 -4 -10 -6 0 -11 5 -11 10 0 6 2 10 4 10 3 0 8 -4 11 -10z m35 -234 c0 -3 -5 -8 -12 -12 -7 -4 -8 -3 -4 4 7 12 16 16 16 8z m-40 -40 c0 -3 -5 -8 -12 -12 -7 -4 -8 -3 -4 4 7 12 16 16 16 8z m1470 -1350 c0 -3 -5 -8 -12 -12 -7 -4 -8 -3 -4 4 7 12 16 16 16 8z"/>
 <path d="M4500 4732 c0 -9 293 -302 303 -302 4 0 7 70 7 155 l0 155 -155 0 c-85 0 -155 -3 -155 -8z"/>
 <path d="M4345 3773 c-253 -253 -468 -469 -479 -481 -18 -21 -18 -22 11 -64 16 -24 32 -50 36 -58 4 -8 16 -28 27 -45 11 -16 29 -50 41 -75 12 -25 27 -56 35 -70 16 -29 33 -67 44 -95 5 -11 18 -41 29 -66 12 -25 21 -51 21 -58 0 -7 9 -40 20 -74 37 -117 51 -170 53 -201 2 -17 6 -37 10 -44 5 -7 6 -21 2 -31 -3 -11 -1 -22 5 -26 7 -4 9 -18 6 -32 -4 -13 -3 -29 1 -36 9 -13 11 -39 19 -245 3 -89 2 -138 -6 -147 -6 -8 -8 -29 -4 -54 4 -25 2 -46 -5 -55 -6 -7 -9 -21 -5 -30 3 -9 3 -24 -1 -33 -5 -10 -7 -28 -6 -40 1 -11 -2 -24 -8 -27 -6 -4 -8 -13 -4 -21 3 -9 0 -21 -6 -29 -6 -7 -8 -16 -5 -19 3 -3 2 -12 -2 -19 -4 -7 -9 -19 -9 -28 -3 -31 -58 -208 -87 -280 -47 -116 -132 -281 -172 -333 -20 -26 -36 -51 -36 -56 0 -14 -139 -191 -150 -191 -6 0 -10 -6 -10 -13 0 -13 -192 -207 -205 -207 -4 0 -16 -11 -27 -25 -11 -14 -23 -25 -28 -25 -4 0 -21 -12 -37 -27 -60 -56 -236 -165 -365 -228 -132 -63 -382 -153 -442 -159 -17 -2 -38 -6 -46 -9 -8 -3 -24 -8 -35 -11 -11 -2 125 -4 303 -4 244 1 322 4 322 13 0 7 7 18 15 25 8 7 13 16 10 19 -2 4 2 8 10 8 12 0 12 -4 -2 -19 -9 -10 -18 -25 -19 -33 -3 -21 35 -19 60 2 20 17 20 17 7 1 -13 -17 26 -18 783 -18 l796 0 0 836 c0 785 -1 838 -17 850 -17 13 -17 14 0 8 15 -5 17 1 17 44 0 28 -5 54 -11 58 -8 5 -8 8 0 13 8 5 10 338 9 1216 l-3 1208 -460 -460z m449 -1911 c3 -5 -1 -9 -9 -9 -8 0 -15 4 -15 9 0 4 4 8 9 8 6 0 12 -4 15 -8z m-50 -30 c3 -5 -1 -9 -9 -9 -8 0 -12 4 -9 9 3 4 7 8 9 8 2 0 6 -4 9 -8z m-17 -59 c-3 -10 -5 -4 -5 12 0 17 2 24 5 18 2 -7 2 -21 0 -30z m-20 -15 c-3 -8 -6 -5 -6 6 -1 11 2 17 5 13 3 -3 4 -12 1 -19z m-1617 -1592 c0 -11 -19 -15 -25 -6 -3 5 1 10 9 10 9 0 16 -2 16 -4z m-36 -22 c3 -8 2 -13 -2 -10 -4 2 -14 1 -22 -5 -10 -5 -11 -9 -3 -9 7 0 10 -7 6 -17 -6 -15 -7 -14 -13 3 -6 15 10 47 26 53 1 1 5 -6 8 -15z m79 -54 c9 -11 13 -20 8 -20 -5 0 -14 7 -22 16 -7 9 -22 14 -36 11 -12 -2 -20 0 -17 4 10 16 49 9 67 -11z m38 3 c13 -16 12 -17 -3 -4 -10 7 -18 15 -18 17 0 8 8 3 21 -13z m-108 -33 c3 -11 1 -18 -4 -14 -5 3 -9 12 -9 20 0 20 7 17 13 -6z m-8 -30 c10 -11 16 -20 13 -20 -3 0 -13 9 -23 20 -10 11 -16 20 -13 20 3 0 13 -9 23 -20z"/>
 <path d="M2007 3444 c-1 -1 -20 -5 -42 -7 -22 -3 -47 -8 -55 -11 -8 -3 -31 -7 -50 -9 -19 -3 -48 -9 -64 -16 -16 -6 -40 -13 -55 -15 -14 -2 -42 -10 -62 -19 -19 -9 -48 -19 -64 -23 l-30 -7 35 -14 35 -13 -32 6 c-17 3 -52 -2 -77 -10 -57 -20 -139 -70 -129 -80 4 -4 0 -4 -8 -1 -33 13 -268 -191 -362 -315 -23 -30 -45 -56 -49 -58 -5 -2 -8 -7 -8 -11 0 -4 -22 -44 -48 -88 -27 -44 -54 -96 -61 -114 -8 -19 -19 -47 -26 -64 -31 -73 -83 -259 -91 -325 -7 -56 -5 -319 2 -385 4 -33 11 -65 16 -71 4 -6 6 -18 2 -27 -3 -8 -1 -18 5 -22 6 -3 11 -14 11 -23 0 -48 150 -379 180 -397 6 -3 10 -14 10 -23 0 -10 9 -23 20 -30 11 -7 20 -18 20 -25 0 -7 9 -18 20 -25 11 -7 20 -17 20 -23 0 -6 13 -22 30 -36 16 -13 30 -31 30 -39 0 -8 6 -14 13 -14 7 0 34 -22 60 -50 26 -27 52 -50 57 -50 6 0 15 -9 22 -20 7 -11 18 -20 25 -20 7 0 18 -9 25 -20 7 -11 16 -20 20 -20 4 0 52 -25 105 -55 54 -30 130 -67 168 -81 39 -15 84 -32 100 -39 34 -15 81 -26 109 -26 11 0 27 -4 37 -10 10 -5 40 -12 66 -15 85 -10 346 -6 412 6 257 46 534 183 706 347 11 10 28 22 38 26 9 4 20 15 24 24 3 10 18 32 34 48 67 72 127 160 116 167 -8 5 -7 8 5 8 9 0 23 12 30 28 8 15 27 49 43 77 29 48 29 49 5 32 -13 -9 -36 -17 -50 -16 -21 1 -20 2 8 9 42 10 83 47 75 68 -4 9 -2 13 4 9 6 -4 17 13 27 42 9 27 21 62 27 78 7 15 13 37 15 48 1 11 10 49 19 85 9 36 19 83 22 105 8 56 8 301 0 355 -17 111 -20 126 -30 138 -5 7 -7 15 -4 19 4 3 3 11 -2 17 -4 6 -18 45 -31 86 -29 98 -108 259 -162 331 -16 20 -28 40 -28 43 0 3 -8 14 -17 25 -10 10 -29 33 -43 51 -41 53 -172 180 -186 180 -2 0 -32 22 -67 48 -34 26 -73 53 -87 60 -14 7 -63 32 -109 56 -46 24 -118 54 -160 66 -42 12 -80 25 -86 29 -5 3 -14 6 -20 6 -5 1 -28 6 -50 12 -22 7 -62 15 -90 18 -50 7 -312 14 -318 9z m-342 -114 c3 -5 4 -10 1 -10 -3 0 -8 5 -11 10 -3 6 -4 10 -1 10 3 0 8 -4 11 -10z m50 -50 c3 -5 4 -10 1 -10 -3 0 -8 5 -11 10 -3 6 -4 10 -1 10 3 0 8 -4 11 -10z m132 -92 c-3 -7 -5 -2 -5 12 0 14 2 19 5 13 2 -7 2 -19 0 -25z m-187 -22 c0 -3 -5 -8 -12 -12 -7 -4 -8 -3 -4 4 7 12 16 16 16 8z m-43 -23 c-4 -3 -10 -3 -14 0 -3 4 0 7 7 7 7 0 10 -3 7 -7z m173 -7 c0 -3 -5 -8 -12 -12 -7 -4 -8 -3 -4 4 7 12 16 16 16 8z m-38 -48 c-7 -7 -12 -8 -12 -2 0 14 12 26 19 19 2 -3 -1 -11 -7 -17z m-55 -35 c-4 -3 -10 -3 -14 0 -3 4 0 7 7 7 7 0 10 -3 7 -7z m-90 -9 c-3 -3 -12 -4 -19 -1 -8 3 -5 6 6 6 11 1 17 -2 13 -5z m-215 -1196 c-7 -7 -12 -8 -12 -2 0 6 3 14 7 17 3 4 9 5 12 2 2 -3 -1 -11 -7 -17z m-25 -1 c0 -8 -6 -14 -14 -14 -9 0 -10 4 -2 14 6 7 12 13 14 13 1 0 2 -6 2 -13z m58 -7 c3 -5 4 -10 1 -10 -3 0 -8 5 -11 10 -3 6 -4 10 -1 10 3 0 8 -4 11 -10z m1869 -29 c3 -4 -6 -6 -19 -3 -14 2 -25 6 -25 8 0 8 39 4 44 -5z m-1967 -28 c-4 -3 -7 0 -7 7 0 7 3 10 7 7 3 -4 3 -10 0 -14z m101 5 c19 -19 14 -33 -6 -15 -25 23 -38 21 -56 -5 -9 -12 -16 -17 -16 -11 0 33 54 55 78 31z m1842 -5 c-8 -3 -24 -13 -35 -22 -20 -16 -20 -16 -1 7 11 12 26 22 35 21 14 0 14 -1 1 -6z m-1937 -33 c3 -11 1 -18 -4 -14 -5 3 -9 12 -9 20 0 20 7 17 13 -6z m1867 16 c0 -3 -5 -8 -12 -12 -7 -4 -8 -3 -4 4 7 12 16 16 16 8z m111 -13 c13 -16 12 -17 -3 -4 -17 13 -22 21 -14 21 2 0 10 -8 17 -17z m-1837 -24 c-9 -10 -13 -19 -9 -19 4 0 0 -9 -10 -20 -10 -11 -23 -20 -29 -20 -6 0 -4 5 4 10 11 7 12 10 2 10 -8 0 0 12 17 26 17 14 28 31 24 36 -4 7 -1 8 6 4 9 -6 8 -13 -5 -27z m-54 7 c0 -3 -5 -8 -12 -12 -7 -4 -8 -3 -4 4 7 12 16 16 16 8z m1740 -10 c0 -3 -5 -8 -12 -12 -7 -4 -8 -3 -4 4 7 12 16 16 16 8z m-1753 -32 c-3 -3 -12 -4 -19 -1 -8 3 -5 6 6 6 11 1 17 -2 13 -5z m1723 2 c0 -3 -5 -8 -12 -12 -7 -4 -8 -3 -4 4 7 12 16 16 16 8z m19 -26 c-13 -16 -25 -28 -27 -25 -5 5 37 55 45 55 2 0 -6 -13 -18 -30z m-1572 14 c-3 -3 -12 -4 -19 -1 -8 3 -5 6 6 6 11 1 17 -2 13 -5z m1748 -4 c3 -5 4 -10 1 -10 -3 0 -8 5 -11 10 -3 6 -4 10 -1 10 3 0 8 -4 11 -10z m-1928 -7 c-4 -3 -10 -3 -14 0 -3 4 0 7 7 7 7 0 10 -3 7 -7z m83 -19 c-8 -8 -23 -20 -34 -25 -13 -7 -9 -1 9 15 34 29 43 33 25 10z m50 2 c0 -3 -5 -8 -12 -12 -7 -4 -8 -3 -4 4 7 12 16 16 16 8z m1815 -6 c3 -5 4 -10 1 -10 -3 0 -8 5 -11 10 -3 6 -4 10 -1 10 3 0 8 -4 11 -10z m-1705 -36 c0 -7 -4 -16 -10 -19 -6 -3 -7 1 -4 10 4 8 0 23 -7 33 -13 15 -12 16 4 3 9 -7 17 -19 17 -27z m-140 12 c0 -3 -5 -8 -12 -12 -7 -4 -8 -3 -4 4 7 12 16 16 16 8z m1813 -3 c-7 -2 -21 -2 -30 0 -10 3 -4 5 12 5 17 0 24 -2 18 -5z m-186 -20 c-4 -3 -7 0 -7 7 0 7 3 10 7 7 3 -4 3 -10 0 -14z m0 -40 c-4 -3 -7 0 -7 7 0 7 3 10 7 7 3 -4 3 -10 0 -14z m-1626 -10 c13 -16 12 -17 -3 -4 -10 7 -18 15 -18 17 0 8 8 3 21 -13z m70 -17 c-9 -11 -9 -15 1 -18 8 -3 6 -7 -6 -11 -10 -4 -15 -3 -11 3 3 6 -2 10 -12 10 -14 0 -13 3 7 14 33 18 35 19 21 2z m76 -6 c14 -11 21 -20 16 -20 -6 0 -16 7 -23 15 -7 9 -19 14 -27 11 -8 -3 -11 -1 -8 4 9 14 13 13 42 -10z m65 -16 c-9 -16 -10 -14 -9 8 1 15 6 23 11 18 4 -4 4 -16 -2 -26z m1375 9 c-4 -3 -7 0 -7 7 0 7 3 10 7 7 3 -4 3 -10 0 -14z m-1330 -40 c-4 -3 -7 0 -7 7 0 7 3 10 7 7 3 -4 3 -10 0 -14z m6 -28 c20 5 20 5 4 -5 -21 -14 -52 5 -40 24 5 7 9 5 11 -7 3 -13 10 -16 25 -12z m-99 -4 c3 -5 -1 -14 -8 -20 -12 -10 -13 -8 -9 8 6 23 9 25 17 12z m-27 -7 c-3 -3 -12 -4 -19 -1 -8 3 -5 6 6 6 11 1 17 -2 13 -5z m201 -20 c-2 -1 -16 -5 -31 -8 -14 -2 -31 -7 -37 -11 -5 -3 -10 -3 -10 2 0 16 54 40 68 30 7 -5 11 -11 10 -13z m-120 4 c14 -14 16 -38 2 -38 -5 0 -7 6 -4 14 7 19 -16 32 -27 15 -5 -8 -9 -9 -9 -3 0 24 20 30 38 12z m115 -42 c-10 -13 -20 -22 -22 -20 -4 4 29 44 36 44 2 0 -4 -11 -14 -24z m-78 -25 c-2 -4 -18 -7 -37 -8 -29 -1 -30 0 -8 6 31 9 50 10 45 2z m86 -54 c-8 -8 -14 -8 -23 2 -11 10 -10 11 5 6 12 -5 17 -2 18 11 0 12 2 14 6 6 3 -8 0 -19 -6 -25z m-1 -82 c-13 -16 -16 -15 -32 5 -14 18 -16 26 -6 37 10 12 14 11 31 -6 18 -17 18 -22 7 -36z"/>
 <path d="M1444 1698 c-4 -7 -3 -8 4 -4 12 7 16 16 8 16 -3 0 -8 -5 -12 -12z"/>
 <path d="M1632 32 c-7 -2 -12 -10 -12 -18 0 -11 16 -14 71 -14 44 0 68 4 64 10 -3 6 -17 7 -30 4 -13 -3 -37 0 -52 8 -16 8 -34 13 -41 10z"/>
 </g>

</svg>